<svg data-name="Grupo 10955" xmlns="http://www.w3.org/2000/svg" width="112.896" height="69.659" viewBox="0 0 112.896 69.659">
    <defs>
        <clipPath id="rwxb8ijjda">
            <path data-name="Rectángulo 160" style="fill:none" d="M0 0h112.896v69.659H0z"/>
        </clipPath>
    </defs>
    <g data-name="Grupo 121" style="clip-path:url(#rwxb8ijjda)">
        <path data-name="Trazado 395" d="M44.182 21.659a5.342 5.342 0 0 1 4.426-1.959c4.5 0 5.187 2.249 4.353 6.13l-3.845 18.1c-.4 1.922-.29 2.1 2.321 2.1h4.607l-.544 2.616h-5.949c-3.592 0-4.571-.8-3.845-4.208l3.917-18.608c.544-2.5.327-3.41-1.6-3.41s-2.394.907-2.938 3.446L39.612 51.62h-3.337l5.477-25.79c.544-2.5 0-3.446-2.176-3.41h-1.633l-6.711 31.63H27.9l7.287-34.35h4.643c2.431 0 3.954.762 4.353 1.959" transform="translate(-14.48 -10.226)" style="fill:#009fae"/>
        <path data-name="Trazado 396" d="M97.982 61.5h3.772l-.544 2.612h-4.28c-2.248 0-3.3-.363-3.627-1.633-.834 1.27-1.814 1.633-3.954 1.633h-.109c-1.958 0-2.938-.363-3.265-1.633-.834 1.27-2.031 1.633-4.28 1.633h-.363l-.87-2.612h2.357c2.1 0 2.648-.471 3.047-2.357l.98-4.716c.653-2.974 1.995-4.932 5.187-4.932h.29c1.6 0 2.395.435 2.648.979l.218-.871h2.829l-2.031 9.54c-.4 1.886-.109 2.357 2 2.357m-5.7-9.431c-1.669 0-2.213.508-2.612 2.357l-.975 4.715c-.4 1.814 0 2.357 1.6 2.357h.218c1.6 0 2.212-.544 2.611-2.357l.98-4.716c.4-1.886.29-2.357-1.814-2.357" transform="translate(-41.766 -25.691)" style="fill:#009fae"/>
        <path data-name="Trazado 397" d="M142.843 61.381h3.663l-.544 2.612h-4.244c-3.627 0-4.643-.8-3.881-4.389L139 54.2c.4-1.85.253-2.321-.98-2.321-1.052 0-1.451.436-1.85 2.321l-2.07 9.793h-2.865L133.3 54.2c.4-1.886.109-2.43-.907-2.43-1.16 0-1.56.58-1.959 2.43l-2.031 9.794h-6.348l-.87-2.612h4.933l2.539-11.934h2.829l-.181.834a3.336 3.336 0 0 1 2.467-1.015c1.305 0 2.031.363 2.14 1.6a3.8 3.8 0 0 1 3.518-1.6c2.611 0 3.011 1.959 2.394 4.933l-1.158 5.4c-.327 1.632-.218 1.777 2.177 1.777" transform="translate(-62.906 -25.573)" style="fill:#009fae"/>
        <path data-name="Trazado 398" d="M180.549 54.02h3.7l-.544 2.612h-4.28c-2.249 0-3.3-.363-3.628-1.633-.834 1.27-2.031 1.633-4.28 1.633h-.363l-.87-2.612h2.357c2.1 0 2.648-.471 3.047-2.357l2.031-9.576h2.829l-2.031 9.576c-.4 1.886-.073 2.357 2.031 2.357m.072-18.934a1.737 1.737 0 0 1 1.78 2.214 2.891 2.891 0 0 1-2.721 2.249 1.732 1.732 0 0 1-1.741-2.249 2.857 2.857 0 0 1 2.684-2.213" transform="translate(-88.39 -18.212)" style="fill:#009fae"/>
        <path data-name="Trazado 399" d="M39.809 110.647a3.738 3.738 0 0 1 2.386.625 3.176 3.176 0 0 1 1.231 2.588 3.061 3.061 0 0 1-1.288 2.588 3.685 3.685 0 0 1-2.348.616h-1.328v-6.417zm-.366 5.494h.423a2.779 2.779 0 0 0 1.7-.452 2.374 2.374 0 0 0 .009-3.675 2.871 2.871 0 0 0-1.712-.443h-.423z" transform="translate(-19.965 -57.434)" style="fill:#424448"/>
        <path data-name="Trazado 400" d="M78.882 111.57h-2.559v1.63h2.482v.924h-2.482v2.02h2.559v.923h-3.54v-6.417h3.54z" transform="translate(-39.108 -57.434)" style="fill:#424448"/>
        <path data-name="Trazado 401" d="M113.762 112.023a2.5 2.5 0 0 0-1.741-.711 2.292 2.292 0 0 0-2.338 2.444 2.317 2.317 0 0 0 2.347 2.405 2.549 2.549 0 0 0 1.732-.741v1.164a3.5 3.5 0 0 1-1.761.481 3.215 3.215 0 0 1-2.27-.884 3.148 3.148 0 0 1-1.029-2.424 3.358 3.358 0 0 1 1.029-2.511 3.178 3.178 0 0 1 2.319-.837 3.046 3.046 0 0 1 1.713.462z" transform="translate(-56.425 -57.31)" style="fill:#424448"/>
        <path data-name="Trazado 402" d="M151.358 113.735a3.338 3.338 0 1 1-3.338-3.329 3.255 3.255 0 0 1 3.338 3.329m-.982 0a2.358 2.358 0 1 0-2.357 2.424 2.3 2.3 0 0 0 2.357-2.424" transform="translate(-75.1 -57.309)" style="fill:#424448"/>
        <path data-name="Trazado 403" d="M186.266 110.647a2.873 2.873 0 0 1 1.693.375 1.791 1.791 0 0 1 .76 1.511 1.76 1.76 0 0 1-1.424 1.79l2 2.742h-1.183l-1.838-2.626h-.174v2.626h-.981v-6.417zm-.164 2.944h.308c.269 0 1.366-.029 1.366-1.049 0-.9-.856-.991-1.337-.991h-.339z" transform="translate(-96.092 -57.434)" style="fill:#424448"/>
        <path data-name="Trazado 404" d="M112.9 69.659H75.433v-.481h36.982V.481H.481v68.7h36.193v.481H0V0h112.9z" style="fill:#072024"/>
    </g>
</svg>
